#!OML:ASF F:\VICON\USERDATA\INSTALL\rory3\rory3.ASF
:FULLY-SPECIFIED
:DEGREES
84
root 1.3784614625288487 17.866887502285287 55.55138020992802 -3.581469305522785 -0.48158515204985153 3.068684161025687
lfemur 7.2671353490200445 -5.0857712461941285 -27.90845603824038
ltibia 21.79105425707141
lfoot -5.970729119169661 -5.449816834601011
ltoes -7.245948390904729
rfemur -23.064624841095743 0.5055741863963901 20.261577140563393
rtibia 57.84990926302845
rfoot -6.514985648525426 -1.246390697490912
rtoes 3.628390225210099
lowerback 9.12049352269701 -1.870149364655611 -3.2743498042991983
upperback 0.05627077895626108 -2.4214312229603423 1.029698764482983
thorax -4.929928769679136 -1.192420043435851 2.815730380859645
lowerneck -16.58108462196518 -2.8680981484790804 -1.9094330069645256
upperneck 21.64802514175183 -3.596289949932625 1.2097131475931202
head 9.70275382392795 -1.7432730463893247 0.36853764281300105
lclavicle 4.919779458537913e-16 -7.332787348386986e-16
lhumerus -25.365597678126925 0.4876424753008406 80.11722041149733
lradius 28.15457089399045
lwrist 5.528820626062967
lhand -28.224902738371416 20.403545580333805
lfingers nan
lthumb -1.5452513912283068 50.39669922511439
rclavicle 3.826779309115057e-16 -8.015430893286149e-16
rhumerus -31.04182823185539 -19.26279723904377 -81.17956496077136
rradius 30.728782167671078
rwrist -0.4545203309813357
rhand -17.692234677687573 21.81143951312583
rfingers nan
rthumb 8.683955604629423 -7.621672629196725
85
root 1.4567868605582879 17.886392339183033 56.656104919467026 -3.3002159845847423 -0.9793125711802584 2.6979689583926936
lfemur 9.083931552961186 -4.900032066284298 -27.38778207788209
ltibia 22.06497584650095
lfoot -5.521692460179489 -5.3597039153939185
ltoes -7.003914085914232
rfemur -23.238194768291258 0.8764050954353046 21.08911536757516
rtibia 53.589531011525075
rfoot -6.78269888462999 -1.0893968967674965
rtoes 2.771805933434605
lowerback 8.938955127867667 -2.1098143984375164 -3.066155530367569
upperback -0.01800436647374834 -2.6567551912928646 1.280686942010786
thorax -4.848770676825868 -1.3020872290618934 3.099799970781656
lowerneck -16.507209769085875 -2.777999996718546 -2.0674932344238353
upperneck 21.935168601491835 -3.420989230141452 0.9902794423656551
head 9.765065996803884 -1.6811297153683074 0.34344026483764095
lclavicle 4.824981762113809e-16 -7.387037040254801e-16
lhumerus -24.95757648148573 -0.05180377119862012 80.02878380226771
lradius 28.282454428172038
lwrist 5.582255849741495
lhand -28.262884686317545 20.4998369047372
lfingers nan
lthumb -1.5422734160528775 50.608076000501654
rclavicle 3.767339007781962e-16 -8.024105138885911e-16
rhumerus -31.77198821328478 -19.873452463039172 -80.88509278108118
rradius 30.975765534184184
rwrist -0.22724544906286193
rhand -17.69694686098607 21.86302972138715
rfingers nan
rthumb 8.714905745490602 -7.485835610711263
86
root 1.4969498034921975 17.90008493711545 56.10778473783477 -3.0835641320955394 -1.6740181782488768 1.5893526777942661
lfemur 10.363629205979624 -4.507031040871875 -26.085780359779214
ltibia 22.991754938366675
lfoot -5.1761311135408405 -5.504750709285352
ltoes -6.311692914717492
rfemur -23.468374660244965 1.4378908752297153 22.51546279361993
rtibia 49.162509652651174
rfoot -7.2069647378800035 -0.7892982326259022
rtoes 1.9082947288473522
lowerback 8.764989541728847 -2.2309177751909344 -2.3521066746475547
upperback -0.10255045877095809 -2.7351586812921966 1.572513790293588
thorax -4.824274962387631 -1.3455376373837151 3.2713330780889764
lowerneck -16.43930731955841 -2.721984484654526 -2.1782133142455025
upperneck 22.173446700733155 -3.301441702468674 0.7794480275077056
head 9.819994759646809 -1.642440662975481 0.294259532208071
lclavicle 4.75652489194675e-16 -7.426633525550529e-16
lhumerus -24.808601024338437 -0.4642137285461905 79.96792915645479
lradius 28.191221928791904
lwrist 5.751859808364093
lhand -28.187181579102738 20.75172729431446
lfingers nan
lthumb -1.5334345249198615 50.69546175304522
rclavicle 3.7177731579909607e-16 -8.035601601035084e-16
rhumerus -32.42242352996493 -20.473376436764283 -80.41578814926378
rradius 31.242094664327574
rwrist 0.288257452147882
rhand -17.702759302039528 21.90378327250401
rfingers nan
rthumb 8.703753995508526 -7.457255945873998
87
root 1.5378952223259916 17.915177062928056 56.64562358355213 -2.8236414778783563 -2.0840586592387806 0.7060664620536945
lfemur 10.959484340180541 -4.066795005775295 -24.76865002797105
ltibia 24.75083918848
lfoot -5.255997724960179 -5.291842703736949
ltoes -5.676467102670215
rfemur -23.48781771168008 1.8858446279100491 23.508648322381422
rtibia 44.78635570463375
rfoot -7.710878125980712 -0.5836370951725627
rtoes 1.111216743345433
lowerback 8.616381384476886 -2.3030968885645144 -1.717522058574156
upperback -0.1619110734140351 -2.747935461770116 1.7988686708712471
thorax -4.813977614344927 -1.3604190286109084 3.3594590890114655
lowerneck -16.40675200825003 -2.7016958734345535 -2.224116727809016
upperneck 22.297441587739243 -3.245720277908777 0.6084402303068582
head 9.84946107088316 -1.6280325907175694 0.23599828477946905
lclavicle 4.706293055084923e-16 -7.458120874670728e-16
lhumerus -24.86527763695999 -0.6584731200042953 79.96109889430888
lradius 27.855985907455366
lwrist 5.959939505817126
lhand -28.200283637754527 20.672055168503523
lfingers nan
lthumb -1.5255982020953005 50.688194887524084
rclavicle 3.681846128376674e-16 -8.048393415428265e-16
rhumerus -32.97031267928301 -21.147529646821432 -79.82917857468313
rradius 31.49166299513317
rwrist 0.9082287780496254
rhand -17.716609888448733 21.891123320760396
rfingers nan
rthumb 8.732037416377656 -7.384066171468387
88
root 1.5442708063175183 17.91882881970081 55.64485276895194 -2.8013815599156473 -2.521686274004139 -0.12229942610920053
lfemur 10.807348945116978 -3.5663247693789293 -23.356532526909255
ltibia 27.541314948364843
lfoot -5.308281177531039 -4.810101751560358
ltoes -5.555706690935035
rfemur -23.059138817393816 2.193719963687097 24.450840705647625
rtibia 40.59397479025109
rfoot -8.430593255688757 -0.9921304962254514
rtoes 0.5968773748099792
lowerback 8.546201903143222 -2.249499009851971 -1.1184078005425713
upperback -0.17463021766925602 -2.6113674561658566 1.9561448523927072
thorax -4.805141373373982 -1.306628119238885 3.3540003309791357
lowerneck -16.409361646570364 -2.7083216073260403 -2.2092323443287456
upperneck 22.290824066821 -3.2421206782120757 0.48956922891530363
head 9.843126709839277 -1.632255018864288 0.1820712531588496
lclavicle 4.672641872043188e-16 -7.481608059164424e-16
lhumerus -25.070156505673324 -0.7015630485069462 80.00824239210652
lradius 27.275982067553866
lwrist 6.198486471754145
lhand -28.15516928816031 20.70634437819522
lfingers nan
lthumb -1.5299041883274185 50.600253458029876
rclavicle 3.659798665736862e-16 -8.059150420694087e-16
rhumerus -33.31892079265976 -21.844994933896665 -79.18101571363762
rradius 31.692377272023855
rwrist 1.4382211238542912
rhand -17.729850815502353 21.826578793841577
rfingers nan
rthumb 8.697059362829819 -7.51357823015946
89
root 1.5680736872172398 17.925541004423216 56.20696292999428 -2.721967484663953 -2.493715410719918 -0.6545678612596706
lfemur 9.735168736671287 -3.198207953587451 -22.135423985572405
ltibia 31.489938142345704
lfoot -5.213311977575827 -3.4767408580703685
ltoes -5.719723853921842
rfemur -22.271673084958174 2.2607147924323154 25.052657786124175
rtibia 36.92790761038534
rfoot -9.469159269444061 -2.2928312652822402
rtoes 0.32554811393853944
lowerback 8.509495984632588 -2.168041519440989 -0.5629303517707316
upperback -0.15976755151594108 -2.4426623177676667 2.0586748665623262
thorax -4.819828460771779 -1.241266834944189 3.2393451011419923
lowerneck -16.42306241408056 -2.7228074962745366 -2.1462020165733127
upperneck 22.182070374814085 -3.261691396752818 0.408997403908115
head 9.80196151710089 -1.6447269383463266 0.13803611623634254
lclavicle 4.663081532213196e-16 -7.491713388102998e-16
lhumerus -25.357807764395307 -0.5654101029873511 80.11149705143453
lradius 26.449937915743877
lwrist 6.472982115658283
lhand -28.202251580167143 20.5029709851131
lfingers nan
lthumb -1.5353821516255666 50.48259489512695
rclavicle 3.6477099390959275e-16 -8.0711329804154405e-16
rhumerus -33.41869990211571 -22.473554066668804 -78.52269989779822
rradius 31.818953252085578
rwrist 1.5799474235277282
rhand -17.747036909918776 21.726494307431167
rfingers nan
rthumb 8.698219281283727 -7.599744531685963
90
root 1.5609262940114772 17.92094541774096 55.48496785039426 -2.804799905687441 -2.4324614194901395 -1.2584269614338524
lfemur 7.972639269055861 -2.8273490535196606 -20.846421986355324
ltibia 36.40157499266415
lfoot -5.62614379129278 -2.476614207673425
ltoes -5.778656748988848
rfemur -21.19333307337345 2.2653273283409714 25.690084260742513
rtibia 34.095107596670715
rfoot -10.937039982699071 -4.345037483872923
rtoes 0.10158022685690371
lowerback 8.551070773175459 -1.9919477789503413 0.07306452012097053
upperback -0.1228687930758296 -2.1567868135256782 2.124829195826467
thorax -4.879631429457001 -1.1268004163165979 3.0156004692929312
lowerneck -16.454990254325143 -2.7451953601970223 -2.045399900112691
upperneck 22.02034035504465 -3.3008438609283672 0.35067471247523957
head 9.74115230617507 -1.664456201298481 0.09524337643712817
lclavicle 4.683653111081042e-16 -7.484324931279957e-16
lhumerus -25.743940363625782 -0.26962546006711907 80.26409711703334
lradius 25.433102066007752
lwrist 6.790959953049504
lhand -28.179849771833194 20.463122736172796
lfingers nan
lthumb -1.5439456135696257 50.31796573843174
rclavicle 3.651773526354228e-16 -8.080916886594294e-16
rhumerus -33.32031884283266 -23.0121161000698 -77.91621928633344
rradius 31.862252599341033
rwrist 1.295504161761336
rhand -17.76292918483919 21.63697847324132
rfingers nan
rthumb 8.64850906450964 -7.793847993157768
91
root 1.5606019441847145 17.917995366119325 55.83318143786752 -2.856607088881881 -2.1499902287191475 -1.7423354404057947
lfemur 5.525264879335104 -2.472859753099168 -19.617791831588303
ltibia 41.87434650287465
lfoot -5.9922527814881335 -1.6833214530692149
ltoes -5.994055283406132
rfemur -19.471372361150575 2.2105474960900806 26.27142833308071
rtibia 32.041401863962484
rfoot -12.85385690666648 -6.671399700139189
rtoes -0.2342565934771832
lowerback 8.629705967921584 -1.7788297821724957 0.7142788583519256
upperback -0.07429769052295745 -1.8211135141715893 2.150308167523826
thorax -4.9680727744340025 -0.9737562773877018 2.745426797102268
lowerneck -16.494157230231718 -2.770262469499775 -1.9059962943529891
upperneck 21.83727461736227 -3.350519508421029 0.29741966301935907
head 9.672536795821099 -1.6880982321527966 0.04787015806248168
lclavicle 4.728615436350316e-16 -7.46348880807449e-16
lhumerus -26.25455664976096 0.10772271347183615 80.45220694184506
lradius 24.334819717104693
lwrist 7.163955307466769
lhand -28.217022375621298 20.2671708571857
lfingers nan
lthumb -1.542842011038243 50.16526594558627
rclavicle 3.670688525734516e-16 -8.090051312132124e-16
rhumerus -33.065384563622196 -23.417569904945797 -77.40725986009267
rradius 31.835427649262012
rwrist 0.9058167041033176
rhand -17.77977031625216 21.5686747199091
rfingers nan
rthumb 8.650374999903896 -7.8435763021827105
